<svg height="512" viewBox="0 0 512 512" width="512" xmlns="http://www.w3.org/2000/svg"><g id="Stickers"><path d="m506 305.25c-.027 1.752.245-16.131-1.69 111.11a31.139 31.139 0 0 1 -18.46 27.92l-58.06 25.66c-3.067.8-15.913 10.2-32.11 2.82l-5.44-2.48-58.88-26.76a31.1 31.1 0 0 1 -18.07-25.26c-.3-2.673-.188 2.58.63-81.03l-48.97 21.65c-18.576 8.22-32.881-2.358-36.11-3.23l-30.52-13.87c-.038 2.475.238-15.711-1.13 74.58a31.139 31.139 0 0 1 -18.46 27.92l-58.06 25.66-6.64 2.94c-16.013 7.032-28.235-1.847-30.91-2.6l-58.89-26.76a31.165 31.165 0 0 1 -18.23-28.54l1.16-113.89a31.3 31.3 0 0 1 18.31-28.05l64.08-28.93v-4.31c-14.29-.78-27.21-1.87-35.53-2.66a29.524 29.524 0 0 1 -26.32-24.84c-2.5-15.76-2.17-31.65-1.45-42.2a29.327 29.327 0 0 1 24.81-27.14 322.458 322.458 0 0 1 49.99-3.82 347.835 347.835 0 0 1 35.71 1.85 35.984 35.984 0 0 1 20.37-25.52l35.59-16.08a44.687 44.687 0 0 1 5.53-13.29l-32.92-13.52 57.22-36.12 51.37.26 54.24 40.72-35.55 13.47 44.03 22.89a29.416 29.416 0 0 1 19.73-12.34 337.512 337.512 0 0 1 101.78-.1 29.356 29.356 0 0 1 24.81 27.15c.72 10.54 1.05 26.42-1.45 42.19a29.524 29.524 0 0 1 -26.33 24.84c-14.08 1.33-41.4 3.57-66.1 3.57-7.73 0-14.73-.22-20.95-.66l-.9 58.96 31.22-14.1a31.1 31.1 0 0 1 27.18.74l63.6 33.07a30.954 30.954 0 0 1 16.77 28.13z" fill="#fff"/><path d="m187.161 305.055-1.621 107.745c-.248.925 1.8 14.772-11.618 20.8l-57.986 25.627-6.651 2.951c-10.455 4.584-18.536-1.741-21.3-2.557l-58.9-26.769a19.373 19.373 0 0 1 -11.264-15.816c-.2-1.66-.141 5.116 1.059-115.828a19.456 19.456 0 0 1 11.432-17.5l65.842-29.721a19.363 19.363 0 0 1 16.96.458l63.6 33.066a19.384 19.384 0 0 1 10.447 17.544z" fill="#ffb020"/><g fill="#a369f7"><path d="m181.612 427.45a19.638 19.638 0 0 1 -7.69 6.152l-57.986 25.627-6.651 2.951c-10.455 4.584-18.536-1.741-21.3-2.557l-58.9-26.769a19.182 19.182 0 0 1 -6.131-4.406c8.21-25.315 40.695-44.228 79.5-44.228 38.297 0 70.429 18.415 79.158 43.23z"/><path d="m134.082 329.649a31.639 31.639 0 0 0 -63.278 0c0 17.474 14.166 41.472 31.639 41.472s31.639-23.998 31.639-41.472z"/><path d="m494.284 305.055c-.026 1.745.244-16.1-1.683 111.089a19.474 19.474 0 0 1 -11.556 17.456l-57.986 25.627-6.651 2.951c-10.455 4.584-18.536-1.741-21.3-2.557l-58.9-26.769a19.387 19.387 0 0 1 -11.368-17.874l1.16-113.768a19.453 19.453 0 0 1 11.431-17.5l65.842-29.721a19.363 19.363 0 0 1 16.96.458l63.6 33.066a19.384 19.384 0 0 1 10.451 17.542z"/></g><path d="m488.735 427.45a19.638 19.638 0 0 1 -7.69 6.152l-57.986 25.627-6.651 2.951c-10.455 4.584-18.536-1.741-21.3-2.557l-58.9-26.769a19.182 19.182 0 0 1 -6.131-4.406c8.21-25.315 40.695-44.228 79.5-44.228 38.297 0 70.429 18.415 79.158 43.23z" fill="#c72f55"/><path d="m441.205 329.649a31.639 31.639 0 0 0 -63.277 0c0 17.474 14.165 41.472 31.638 41.472s31.639-23.998 31.639-41.472z" fill="#c72f55"/><path d="m357.111 152.681-2.1 138.212a24.186 24.186 0 0 1 -14.382 21.719l-80.413 35.561c-12.96 5.713-23.087-2.166-26.52-3.18l-73.262-33.3a24.135 24.135 0 0 1 -14.154-22.238l1.456-141.555a24.182 24.182 0 0 1 14.216-21.761l81.909-37a24.171 24.171 0 0 1 21.1.582l79.139 41.158a24.122 24.122 0 0 1 13.011 21.802z" fill="#ff605b"/><path d="m355.074 286.736c-.262.99 2.2 18.52-14.444 25.876l-80.413 35.561c-12.96 5.713-23.087-2.166-26.52-3.18l-73.262-33.3a24.07 24.07 0 0 1 -14.029-19.682c29.014-20.638 60.709-34.355 103.835-39.156a204.5 204.5 0 0 1 104.833 33.881z" fill="#00abfe"/><path d="m264.25 289.771 4.239 54.744-8.272 3.658c-12.96 5.713-23.087-2.166-26.52-3.18l9.1-56.947-7.171-11.993 4.178-16.668h27.796l5.175 13.717z" fill="#c72f55"/><path d="m221.287 236.426-8.223 23.438 19.336 31.752 19.301-29.632z" fill="#a369f7"/><path d="m259.537 253.463 15.089 38.153 25.048-30.641-8.38-20.474z" fill="#a369f7"/><path d="m305.722 162.936c-5.433-11.853-15.54-23.926-48.983-26.271-36.192 1.975-43.551 14.418-48.984 26.271s-2.047 31.192 1.8 63.119c5.062 41.979 47.181 41.979 47.181 41.979s42.118 0 47.18-41.979c3.853-31.927 7.238-51.266 1.806-63.119z" fill="#eae5db"/><path d="m218.908 73.052s-1.5 26.629-.676 27.964c19.135 10.088 43.887 8.444 61.52-4.086l-2.462-28.03z" fill="#1d1d3d"/><path d="m249.792 94.598 54.315-20.57-34.123-25.616-44.077-.225-35.133 22.181z" fill="#1d1d3d"/><path d="m250.117 67.691a2.506 2.506 0 0 0 -2.842-2.1 63.2 63.2 0 0 0 -37.325 20.209c-9.36 10.534-9.377 20.676-10.722 35.458-3.31 1.878-4.467 5.527-5.265 9.237a75.074 75.074 0 0 0 -1.578 11.869c1.707.9 8.633 4.149 10.524 3.855 2.478-.386 7.818-6.174 7.683-13.348-.086-4.554-1.653-10.509-6.294-12.152 1.214-13.659 1.349-22.549 9.39-31.6a58.125 58.125 0 0 1 34.326-18.587 2.5 2.5 0 0 0 2.103-2.841z" fill="#ffb020"/><path d="m165.8 203.917a242.324 242.324 0 0 0 .163-33.293 17.67 17.67 0 0 0 -14.927-16c-18.744-2.922-56.053-6.737-98.15-.1a17.78 17.78 0 0 0 -14.956 16.376c-.7 10.32-.967 25.061 1.333 39.563a17.8 17.8 0 0 0 15.861 15.018c26.657 2.518 87.475 7.07 109.194-1.313l14.816 9.878z" fill="#7ad001"/><path d="m139.386 181.97h-.08l-77.537-2.47a2.5 2.5 0 1 1 .158-5l77.537 2.469a2.5 2.5 0 0 1 -.078 5z" fill="#fff"/><path d="m139.387 206.072h-.081l-77.538-2.472a2.5 2.5 0 0 1 .159-5l77.538 2.469a2.5 2.5 0 0 1 -.078 5z" fill="#fff"/><path d="m343.407 162.322a242.324 242.324 0 0 1 -.163-33.293 17.673 17.673 0 0 1 14.927-16c18.744-2.921 56.053-6.737 98.15-.1a17.779 17.779 0 0 1 14.955 16.371c.7 10.32.967 25.061-1.333 39.563a17.8 17.8 0 0 1 -15.861 15.018c-26.657 2.518-87.475 7.07-109.194-1.312l-14.816 9.877z" fill="#7ad001"/><path d="m369.82 140.375a2.5 2.5 0 0 1 -.078-5l77.538-2.469a2.5 2.5 0 0 1 .158 5l-77.538 2.468z" fill="#fff"/><path d="m369.82 164.478a2.5 2.5 0 0 1 -.079-5l77.539-2.47a2.5 2.5 0 1 1 .158 5l-77.538 2.47z" fill="#fff"/></g></svg>