<?xml version="1.0" encoding="UTF-8"?>
<svg version="1.1" xmlns="http://www.w3.org/2000/svg" width="320" height="320">
<path d="M0 0 C1.16144531 0.06703125 2.32289062 0.1340625 3.51953125 0.203125 C7.74468872 0.83307393 11.25706221 2.14049487 15.1875 3.75 C16.56618195 4.27744474 17.94640252 4.80088509 19.328125 5.3203125 C21.39908192 6.10381141 23.46996898 6.88737201 25.5390625 7.67578125 C28.73144395 8.88056889 31.86764886 9.96708519 35.1875 10.75 C35.1875 11.41 35.1875 12.07 35.1875 12.75 C36.1775 12.42 37.1675 12.09 38.1875 11.75 C38.8475 12.08 39.5075 12.41 40.1875 12.75 C40.1875 13.41 40.1875 14.07 40.1875 14.75 C41.02023438 14.9665625 41.85296875 15.183125 42.7109375 15.40625 C47.00718549 17.06682226 50.18782017 19.45567511 53.8125 22.25 C55.11509734 23.24233301 56.41972469 24.23200809 57.7265625 25.21875 C58.29584473 25.65638672 58.86512695 26.09402344 59.45166016 26.54492188 C61.28989532 27.82108626 63.16602436 28.79598303 65.1875 29.75 C65.1875 30.41 65.1875 31.07 65.1875 31.75 C65.8475 31.75 66.5075 31.75 67.1875 31.75 C68.66796875 33.2890625 68.66796875 33.2890625 70.375 35.375 C72.71847638 38.15299595 75.03169219 40.55133495 77.875 42.8125 C80.73120134 45.16839113 82.39575362 47.51298776 84.09765625 50.84375 C85.39964256 53.12105939 86.963749 55.03327297 88.625 57.0625 C91.79878713 61.02632856 94.03230695 65.07707044 96.14453125 69.68359375 C97.12711852 71.89804892 97.12711852 71.89804892 99.1875 73.75 C104.23372899 87.31174041 106.54462531 101.36290785 107.1875 115.75 C106.5275 115.75 105.8675 115.75 105.1875 115.75 C104.60646464 118.91341476 104.42437238 121.6077098 105.1875 124.75 C107.36026106 127.0117045 109.59598361 128.62776014 112.21875 130.33984375 C112.8684375 130.80519531 113.518125 131.27054688 114.1875 131.75 C114.1875 132.41 114.1875 133.07 114.1875 133.75 C115.1775 134.08 116.1675 134.41 117.1875 134.75 C117.5175 135.41 117.8475 136.07 118.1875 136.75 C119.1775 137.08 120.1675 137.41 121.1875 137.75 C125.1875 143.12142857 125.1875 143.12142857 125.1875 145.75 C125.8475 145.75 126.5075 145.75 127.1875 145.75 C128.72482837 147.8460823 130.1261254 149.9247156 131.5 152.125 C131.90444336 152.76767822 132.30888672 153.41035645 132.72558594 154.07250977 C139.29088622 164.62840522 145.05310678 176.18189367 146.703125 188.64453125 C146.94289062 190.18173828 146.94289062 190.18173828 147.1875 191.75 C147.8475 192.08 148.5075 192.41 149.1875 192.75 C149.57921753 194.40391846 149.90807545 196.07345271 150.1875 197.75 C150.5175 198.74 150.8475 199.73 151.1875 200.75 C151.41075814 202.80893621 151.59455759 204.87233653 151.75 206.9375 C151.83378906 208.02417969 151.91757813 209.11085937 152.00390625 210.23046875 C152.06449219 211.06191406 152.12507812 211.89335937 152.1875 212.75 C152.32849121 212.09926514 152.46948242 211.44853027 152.61474609 210.77807617 C153.25741693 207.82973816 153.90983883 204.88364185 154.5625 201.9375 C154.78421875 200.91333984 155.0059375 199.88917969 155.234375 198.83398438 C155.45351562 197.85107422 155.67265625 196.86816406 155.8984375 195.85546875 C156.09743652 194.94949951 156.29643555 194.04353027 156.50146484 193.11010742 C157.1875 190.75 157.1875 190.75 159.1875 187.75 C161.625 187.3125 161.625 187.3125 164.1875 187.75 C166.1875 189.1875 166.1875 189.1875 167.1875 191.75 C166.65134302 193.97782469 165.85386672 196.02638766 165.01953125 198.16015625 C163.81030629 201.92408184 163.67622936 205.63226847 163.49609375 209.5625 C163.39425781 210.284375 163.29242188 211.00625 163.1875 211.75 C162.5275 212.08 161.8675 212.41 161.1875 212.75 C160.67280171 214.52588401 160.67280171 214.52588401 160.375 216.75 C159.31916432 222.65581258 157.61503137 228.30655589 155.86401367 234.03515625 C154.63190071 237.82350573 154.63190071 237.82350573 154.1875 241.75 C150.7522952 244.04013653 149.202169 243.92842973 145.1875 243.75 C145.1875 243.09 145.1875 242.43 145.1875 241.75 C144.1975 241.42 143.2075 241.09 142.1875 240.75 C141.046875 239.0703125 141.046875 239.0703125 139.9375 236.875 C137.45113292 232.15165828 134.64872922 227.70262051 131.73828125 223.23046875 C130.1875 220.75 130.1875 220.75 129.16796875 218.61328125 C128.28524956 216.70135895 128.28524956 216.70135895 126.76171875 215.3671875 C124.58330162 213.12930985 123.40480696 210.65686465 122 207.875 C121.47019531 206.84632813 120.94039062 205.81765625 120.39453125 204.7578125 C119.20605965 201.79624895 118.92627089 199.89635947 119.1875 196.75 C121.4375 196 121.4375 196 124.1875 195.75 C126.5 197.5625 126.5 197.5625 128.1875 199.75 C128.1875 200.41 128.1875 201.07 128.1875 201.75 C129.1775 201.75 130.1675 201.75 131.1875 201.75 C132.19312575 203.7612515 133.19437423 205.7651233 134.125 207.8125 C135.09540183 209.81147529 135.09540183 209.81147529 136.75 211.25 C138.46325564 213.03774502 138.67497214 214.36796577 139.1875 216.75 C137.81933809 198.69843092 135.80715028 172.36965028 122.1875 158.75 C121.25211318 157.36664178 120.33795058 155.9688489 119.4375 154.5625 C116.68726465 150.39670233 113.84839677 146.17933402 110.1875 142.75 C109.5275 142.75 108.8675 142.75 108.1875 142.75 C106.6796875 141.21875 106.6796875 141.21875 105.0625 139.25 C104.52367187 138.6003125 103.98484375 137.950625 103.4296875 137.28125 C103.01976562 136.7759375 102.60984375 136.270625 102.1875 135.75 C98.21252456 139.15712181 96.31956212 143.07760855 94.1875 147.75 C93.1975 147.75 92.2075 147.75 91.1875 147.75 C91.1875 148.41 91.1875 149.07 91.1875 149.75 C89.17578125 151.58984375 89.17578125 151.58984375 86.5 153.6875 C85.62988281 154.37714844 84.75976562 155.06679687 83.86328125 155.77734375 C81.37843727 157.60923603 78.8339404 159.16754586 76.1875 160.75 C75.5275 161.41 74.8675 162.07 74.1875 162.75 C64.2121491 166.24806768 52.24201404 168.61380611 42.1875 164.75 C40.85838318 164.40023242 39.52667261 164.05903983 38.1875 163.75 C38.1875 163.09 38.1875 162.43 38.1875 161.75 C37.1975 162.08 36.2075 162.41 35.1875 162.75 C33.6875 161.4375 33.6875 161.4375 32.1875 159.75 C32.1875 158.76 32.1875 157.77 32.1875 156.75 C31.32125 156.4096875 31.32125 156.4096875 30.4375 156.0625 C26.96350577 154.03600337 24.65808455 151.45737728 23.578125 147.5390625 C23.10249645 144.14307468 23.09296052 140.86572408 23.125 137.4375 C23.13402344 136.18324219 23.14304688 134.92898437 23.15234375 133.63671875 C23.16394531 132.68410156 23.17554688 131.73148438 23.1875 130.75 C23.8475 130.75 24.5075 130.75 25.1875 130.75 C24.8575 129.76 24.5275 128.77 24.1875 127.75 C24.8475 127.42 25.5075 127.09 26.1875 126.75 C26.331875 126.09 26.47625 125.43 26.625 124.75 C26.9034375 123.76 26.9034375 123.76 27.1875 122.75 C28.1775 122.42 29.1675 122.09 30.1875 121.75 C30.496875 120.925 30.80625 120.1 31.125 119.25 C31.475625 118.425 31.82625 117.6 32.1875 116.75 C33.51337579 116.38814051 34.84828674 116.0588636 36.1875 115.75 C38.13219748 114.62020444 38.13219748 114.62020444 39.9375 113.25 C40.55109375 112.8065625 41.1646875 112.363125 41.796875 111.90625 C42.25578125 111.5246875 42.7146875 111.143125 43.1875 110.75 C43.1875 110.42 43.1875 110.09 43.1875 109.75 C54.32643445 106.60976848 64.89587588 104.23293675 76.1875 107.75 C76.5175 108.41 76.8475 109.07 77.1875 109.75 C79.71573924 110.38205981 82.23360427 110.75658632 84.8125 111.125 C87.51996647 111.83749118 88.29316164 112.7732991 90.1875 114.75 C91.50954631 115.12560942 92.84319817 115.46409532 94.1875 115.75 C96.84721413 98.01857246 91.60116468 84.04107637 83.1875 68.75 C82.5275 68.09 81.8675 67.43 81.1875 66.75 C80.89875 66.110625 80.61 65.47125 80.3125 64.8125 C79.30888445 62.6181521 79.30888445 62.6181521 77.1875 61.3125 C75.1875 59.75 75.1875 59.75 74.25 57.375 C72.86942381 53.96416472 70.84874172 52.29296431 68.1875 49.75 C67.11848836 48.48463929 66.05652563 47.21330453 65 45.9375 C59.62864452 39.73164509 53.22051292 34.91894005 46.1875 30.75 C45.45273438 30.22921875 44.71796875 29.7084375 43.9609375 29.171875 C28.62028606 18.47839158 10.25292358 15.05065188 -7.8125 11.75 C-8.85664062 11.55873535 -9.90078125 11.3674707 -10.9765625 11.17041016 C-13.58804207 10.69411569 -16.19998408 10.22057147 -18.8125 9.75 C-16.1875 4.875 -16.1875 4.875 -12.8125 3.75 C-12.4825 2.76 -12.1525 1.77 -11.8125 0.75 C-7.75183497 -0.25943086 -4.16742966 -0.27568443 0 0 Z M35.0625 131.0625 C32.86181705 134.21681223 32.26287157 135.90604971 32.1875 139.75 C33.34085762 144.63758926 35.0754071 148.66593033 39.1875 151.75 C40.1775 151.75 41.1675 151.75 42.1875 151.75 C42.1875 152.41 42.1875 153.07 42.1875 153.75 C47.57418415 156.7941029 53.71160286 157.33193753 59.77734375 156.31640625 C66.44719369 154.45137712 74.22925891 151.70824109 79.1875 146.75 C79.950625 146.0075 80.71375 145.265 81.5 144.5 C85.86734763 140.03108614 89.99272484 135.68880339 92.1875 129.75 C91.31137651 126.6314905 90.30727789 125.82120517 87.5 124.15234375 C66.8906023 115.03851812 51.33438677 113.35485851 35.0625 131.0625 Z " fill="#010101" transform="translate(80.8125,40.25)"/>
<path d="" fill="#000000" transform="translate(0,0)"/>
<path d="M0 0 C2 1 2 1 2 1 Z " fill="#000000" transform="translate(138,207)"/>
<path d="M0 0 C2 1 2 1 2 1 Z " fill="#000000" transform="translate(125,206)"/>
<path d="M0 0 C2 1 2 1 2 1 Z " fill="#000000" transform="translate(169,167)"/>
<path d="" fill="#000000" transform="translate(0,0)"/>
<path d="" fill="#000000" transform="translate(0,0)"/>
<path d="" fill="#000000" transform="translate(0,0)"/>
<path d="" fill="#000000" transform="translate(0,0)"/>
<path d="" fill="#000000" transform="translate(0,0)"/>
<path d="" fill="#000000" transform="translate(0,0)"/>
<path d="" fill="#000000" transform="translate(0,0)"/>
<path d="" fill="#000000" transform="translate(0,0)"/>
<path d="" fill="#000000" transform="translate(0,0)"/>
<path d="" fill="#000000" transform="translate(0,0)"/>
<path d="" fill="#000000" transform="translate(0,0)"/>
<path d="" fill="#000000" transform="translate(0,0)"/>
<path d="" fill="#000000" transform="translate(0,0)"/>
<path d="" fill="#000000" transform="translate(0,0)"/>
<path d="" fill="#000000" transform="translate(0,0)"/>
<path d="" fill="#000000" transform="translate(0,0)"/>
<path d="" fill="#000000" transform="translate(0,0)"/>
<path d="" fill="#000000" transform="translate(0,0)"/>
<path d="" fill="#000000" transform="translate(0,0)"/>
<path d="" fill="#000000" transform="translate(0,0)"/>
<path d="" fill="#000000" transform="translate(0,0)"/>
<path d="" fill="#000000" transform="translate(0,0)"/>
<path d="" fill="#000000" transform="translate(0,0)"/>
<path d="" fill="#000000" transform="translate(0,0)"/>
<path d="" fill="#000000" transform="translate(0,0)"/>
<path d="" fill="#000000" transform="translate(0,0)"/>
<path d="" fill="#000000" transform="translate(0,0)"/>
<path d="" fill="#000000" transform="translate(0,0)"/>
<path d="" fill="#000000" transform="translate(0,0)"/>
<path d="" fill="#000000" transform="translate(0,0)"/>
<path d="" fill="#000000" transform="translate(0,0)"/>
<path d="" fill="#000000" transform="translate(0,0)"/>
<path d="" fill="#000000" transform="translate(0,0)"/>
<path d="" fill="#000000" transform="translate(0,0)"/>
<path d="" fill="#000000" transform="translate(0,0)"/>
<path d="" fill="#000000" transform="translate(0,0)"/>
<path d="" fill="#000000" transform="translate(0,0)"/>
<path d="" fill="#000000" transform="translate(0,0)"/>
<path d="" fill="#000000" transform="translate(0,0)"/>
<path d="" fill="#000000" transform="translate(0,0)"/>
<path d="" fill="#000000" transform="translate(0,0)"/>
<path d="" fill="#000000" transform="translate(0,0)"/>
<path d="" fill="#000000" transform="translate(0,0)"/>
<path d="" fill="#000000" transform="translate(0,0)"/>
<path d="" fill="#000000" transform="translate(0,0)"/>
<path d="" fill="#000000" transform="translate(0,0)"/>
<path d="" fill="#000000" transform="translate(0,0)"/>
<path d="" fill="#000000" transform="translate(0,0)"/>
<path d="" fill="#000000" transform="translate(0,0)"/>
<path d="" fill="#000000" transform="translate(0,0)"/>
</svg>
